HIERARCHY
ROOT Hips
{
	OFFSET 0.00000 0.00000 0.00000
	CHANNELS 6 Xposition Yposition Zposition Yrotation Zrotation Xrotation 
	JOINT Lumbar
	{
		OFFSET 0 0 0
		CHANNELS 3 Zrotation Xrotation Yrotation
		JOINT Neck
		{
			OFFSET 0.00 0.2701 0.00
			CHANNELS 3 Zrotation Xrotation Yrotation
			End Site
			{
				OFFSET 0.00 0.1379 0.00
			}
		}
		JOINT RightShoulder
		{
			OFFSET 0.0119 0.2289 0.1181
			CHANNELS 3 Zrotation Xrotation Yrotation
			JOINT RightElbow
			{
				OFFSET 0.00 -0.1475 0.00
				CHANNELS 2 Zrotation Yrotation
				JOINT RightWrist
				{
					OFFSET 0.00 -0.1605 0.00
					CHANNELS 2 Zrotation Xrotation
					End Site
					{
						OFFSET 0.0040 -0.1068 0.0006
					}
				}
			}
		}
		JOINT LeftShoulder
		{
			OFFSET 0.0119 0.2289 -0.1181
			CHANNELS 3 Zrotation Xrotation Yrotation
			JOINT LeftElbow
			{
				OFFSET 0.00 -0.1475 0.00
				CHANNELS 2 Zrotation Yrotation
				JOINT LeftWrist
				{
					OFFSET 0.00 -0.1605 0.00
					CHANNELS 2 Zrotation Xrotation
					End Site
					{
						OFFSET 0.0040 -0.1068 -0.0006
					}
				}
			}
		}
	}
	JOINT RightHip
	{
		OFFSET 0.0316 -0.0424 0.0458
		CHANNELS 3 Zrotation Xrotation Yrotation
		JOINT RightKnee
		{
			OFFSET 0.00 -0.2438 0.00
			CHANNELS 1 Zrotation
			JOINT RightAnkle
			{
				OFFSET 0.00 -0.2449 0.00
				CHANNELS 3 Zrotation Xrotation Yrotation
				End Site
				{
					OFFSET 0.1237 -0.0542 0.0051
				}
			}
		}
	}
	JOINT LeftHip
	{
		OFFSET 0.0316 -0.0424 -0.0458
		CHANNELS 3 Zrotation Xrotation Yrotation
		JOINT LeftKnee
		{
			OFFSET 0.00 -0.2438 0.00
			CHANNELS 1 Zrotation
			JOINT LeftAnkle
			{
				OFFSET 0.00 -0.2449 0.00
				CHANNELS 3 Zrotation Xrotation Yrotation
				End Site
				{
					OFFSET 0.1237 -0.0542 -0.0051
				}
			}
		}
	}
}
MOTION
Frames: 33
Frame Time: 0.02
0.54694 -0.02034 -0.35645 606.95946 -19.4005 -3.79296 35.6526 3.53744 12.39343 -12.93131 9.24682 -0.83079 7.48984 4.55175 50.12211 93.50416 88.87737 -10.48412 -6.89076 -38.083 21.19941 18.48906 60.1061 -78.86198 -5.03321 0.57212 28.6243 -1.47937 -15.31595 -30.99236 -7.73736 -5.14292 -3.43763 47.61783 5.54896 -14.49986 -76.05417 -11.6945 2.30111 2.03101
0.54306 -0.01909 -0.35333 607.65947 -19.47901 -3.15135 35.55838 3.78817 13.59896 -13.32303 8.74083 -0.83079 7.69868 4.41297 50.4842 93.50286 89.13442 -10.68433 -6.91044 -40.08715 23.36855 25.16429 56.85141 -78.2471 -5.45344 0.38713 28.31596 -1.82248 -15.221 -31.22854 -7.8394 -5.17636 -3.46281 48.799 4.38773 -11.72474 -74.899 -11.52425 2.39178 2.07527
0.53976 -0.01731 -0.34988 608.09473 -19.68596 -2.45822 35.58853 4.05927 14.75626 -13.76232 8.12842 -0.83079 7.97359 4.09889 50.87876 93.65793 89.0468 -10.7839 -6.83737 -42.40537 25.84885 32.75431 53.52478 -77.52343 -5.90143 0.19443 28.15338 -2.25668 -14.95984 -31.32893 -7.97242 -5.19466 -3.47828 49.81564 3.31678 -8.53713 -72.59424 -11.42695 2.38726 2.06701
0.53621 -0.01579 -0.34658 608.64599 -19.8386 -1.79995 35.56069 4.32092 15.92015 -14.17643 7.57186 -0.83079 8.21783 3.87426 51.24504 93.73129 89.1447 -10.97118 -6.80507 -44.6119 28.27891 39.92462 50.17099 -76.73026 -6.43424 0.00597 27.92789 -2.63844 -14.77206 -31.48938 -8.08882 -5.21758 -3.49694 50.87986 2.21794 -5.54532 -70.74354 -11.29213 2.43062 2.08515
0.53263 -0.01416 -0.34331 609.20413 -19.97545 -1.08502 35.53834 4.58449 17.15798 -14.60873 6.98041 -0.83079 8.46919 3.60675 51.67546 93.84784 89.13611 -10.99045 -6.77536 -46.78957 30.32456 47.25072 47.04869 -76.39419 -6.58812 -0.18435 27.69131 -3.07365 -14.58837 -31.64593 -8.21745 -5.247 -3.51935 52.06288 1.0519 -2.48248 -69.17993 -11.16696 2.45509 2.09248
0.52923 -0.01265 -0.33989 609.68952 -20.17508 -0.47963 35.53487 4.84794 18.22568 -15.01185 6.43725 -0.83079 8.71883 3.38891 51.97668 93.91253 89.25917 -11.32494 -6.72064 -48.98139 33.25455 54.31036 43.45309 -75.13548 -7.4945 -0.37496 27.51097 -3.41635 -14.36027 -31.78299 -8.32731 -5.26061 -3.53228 52.95455 0.04885 0.50624 -66.74209 -11.04163 2.498 2.11115
0.52616 -0.01159 -0.33618 610.0371 -20.51781 -0.18226 35.54715 5.1121 18.84826 -15.33976 6.05794 -0.83079 8.95886 3.33321 51.92146 93.7926 89.85904 -12.64474 -6.60387 -52.18379 38.4146 61.77368 38.34942 -70.87548 -10.86216 -0.53873 27.45402 -3.48386 -14.02912 -31.89363 -8.37866 -5.23231 -3.52035 53.12346 -0.48847 3.31423 -62.22434 -10.91169 2.59782 2.16222
0.52326 -0.01069 -0.33233 610.32234 -20.91884 0.0009 35.57545 5.37392 19.29726 -15.63316 5.73051 -0.83079 9.19262 3.33628 51.73334 93.61617 90.59587 -14.26827 -6.46757 -55.22435 44.46787 68.72084 32.81375 -65.77301 -14.91962 -0.70526 27.44729 -3.45395 -13.66299 -31.99184 -8.40969 -5.18938 -3.49959 52.99785 -0.86887 6.00458 -56.86192 -10.78078 2.72691 2.23105
0.52029 -0.00975 -0.32852 610.63909 -21.29228 0.23031 35.60009 5.63316 19.81675 -15.93114 5.377 -0.83079 9.42087 3.32495 51.59882 93.46754 91.24948 -15.69344 -6.35169 -57.6099 50.21179 74.95625 27.61826 -61.38091 -18.39837 -0.88975 27.41505 -3.46571 -13.32767 -32.10115 -8.44921 -5.15482 -3.48374 52.97883 -1.34483 8.66613 -51.84676 -10.63911 2.84771 2.29607
0.51731 -0.00866 -0.32481 610.93374 -21.67501 0.48456 35.61298 5.90978 20.37215 -16.27815 5.0306 -0.83079 9.68531 3.25801 51.49134 93.3142 91.98077 -17.36981 -6.18687 -62.95196 55.59872 85.05237 21.80925 -55.63327 -22.97359 -1.0014 27.4004 -3.49075 -12.92524 -32.18284 -8.4929 -5.11238 -3.46376 53.06589 -1.71919 11.69837 -46.92761 -10.53531 2.92523 2.33097
0.51438 -0.00794 -0.32085 611.26215 -22.05034 0.66048 35.65353 6.14775 20.80962 -16.51366 4.68269 -0.83079 9.87387 3.32004 51.29918 93.15669 92.58611 -18.59639 -6.11671 -62.25716 61.88746 87.18181 17.18106 -52.47152 -25.45881 -1.2553 27.35773 -3.46506 -12.65432 -32.32052 -8.52276 -5.08312 -3.45043 52.86828 -2.26446 13.91437 -41.64587 -10.36629 3.12472 2.44646
0.51154 -0.0082 -0.31634 611.70811 -22.3921 0.63678 35.75767 6.29348 20.98549 -16.45398 4.32244 -0.83079 9.83811 3.75107 50.87397 92.98814 92.81781 -18.50686 -6.34673 -43.50884 70.87348 65.6134 15.8836 -56.9946 -21.74011 -1.98836 27.23619 -3.31193 -12.77405 -32.62028 -8.51867 -5.09389 -3.45766 51.92223 -3.35859 14.00371 -35.38113 -9.88374 3.43469 2.65979
0.50875 -0.00885 -0.31157 612.18935 -22.7235 0.54001 35.89028 6.39784 21.04503 -16.28218 3.95868 -0.83079 9.72893 4.30543 50.374 92.819 92.91636 -17.95466 -6.66716 -18.94493 80.65546 36.36658 15.79791 -64.08819 -15.94181 -2.84918 27.08177 -3.11309 -13.02448 -32.97665 -8.50147 -5.11845 -3.47191 50.70716 -4.62314 13.26232 -28.82388 -9.35541 3.8958 2.96962
0.50595 -0.00933 -0.30684 612.65052 -23.05828 0.4838 36.01484 6.51168 21.14369 -16.15876 3.59399 -0.83079 9.66372 4.78663 49.92869 92.65813 93.07496 -17.61461 -6.92394 2.01208 89.79189 11.84634 15.17932 -69.7816 -11.27057 -3.59309 26.9348 -2.94157 -13.20368 -33.30499 -8.49041 -5.13686 -3.48303 49.63864 -5.78504 12.82534 -22.52703 -8.94145 4.44712 3.32302
0.50312 -0.00977 -0.30244 613.12851 -23.40089 0.3926 36.11873 6.66411 21.29362 -16.0453 3.24132 -0.83079 9.55354 5.34296 49.39087 92.46178 93.24792 -17.27706 -7.27383 27.00343 100.15667 -17.85309 14.46445 -76.41822 -5.86167 -4.58142 26.82204 -2.73758 -13.43213 -33.64276 -8.47734 -5.15457 -3.49375 48.45704 -7.04859 12.6636 -15.65249 -8.15218 4.37779 3.33559
0.50036 -0.01039 -0.29727 613.57802 -23.72383 0.35844 36.27306 6.72724 21.31228 -15.88461 2.86259 -0.83079 9.51971 5.77015 49.03042 92.33971 93.34778 -16.82057 -7.45326 45.02202 108.1419 -38.65834 14.25107 -81.7202 -1.47819 -5.09616 26.62864 -2.59352 -13.58872 -33.97422 -8.46631 -5.1768 -3.50689 47.45114 -8.14198 11.76993 -9.93461 -8.10905 5.57495 4.04604
0.49775 -0.01145 -0.29016 613.96374 -23.99474 0.49992 36.55197 6.54613 20.99025 -15.62365 2.40923 -0.83079 9.71401 5.82098 49.17218 92.42442 93.36523 -16.1473 -7.12514 41.92188 109.33741 -32.36312 15.06634 -82.639 -0.50302 -4.22748 26.22832 -2.6105 -13.52099 -34.27869 -8.45903 -5.21139 -3.52657 46.9952 -8.73257 8.73388 -7.38929 -10.35298 10.77343 6.96406
0.49524 -0.01267 -0.28226 614.31559 -24.24551 0.70182 36.88177 6.27796 20.54241 -15.31885 1.93064 -0.83079 9.98764 5.7355 49.49647 92.58375 93.299 -15.36963 -6.62518 31.6871 108.10829 -16.97358 16.35894 -82.14317 -0.61598 -2.88642 25.74672 -2.69305 -13.37476 -34.57516 -8.45602 -5.24937 -3.54813 46.72632 -9.14508 5.04728 -6.04008 -13.31146 17.14784 10.52859
0.49271 -0.01379 -0.27464 614.66781 -24.50587 0.87651 37.19358 6.05486 20.15726 -15.03234 1.46505 -0.83079 10.22568 5.70517 49.74206 92.70839 93.21068 -14.63856 -6.21366 25.00543 108.00354 -6.1785 17.47288 -82.34426 -0.18204 -1.79027 25.29642 -2.75596 -13.26157 -34.87125 -8.45357 -5.28396 -3.56792 46.37491 -9.63427 1.87664 -4.20837 -15.79857 22.61913 13.59213
0.49005 -0.01502 -0.26737 615.0844 -24.7658 1.04765 37.4857 5.80744 19.74403 -14.7482 0.99092 -0.83079 10.46001 5.70735 49.96823 92.83684 93.36264 -13.89283 -5.76167 17.20804 107.84198 6.29895 18.46261 -82.40589 0.10505 -0.56944 24.86696 -2.77315 -13.16696 -35.18206 -8.43713 -5.32747 -3.59206 46.00646 -10.14764 -2.23777 -2.10713 -18.89375 29.62063 17.51585
0.48768 -0.01607 -0.25917 615.35869 -25.01977 1.24133 37.82928 5.5901 19.36171 -14.45092 0.53109 -0.83079 10.72084 5.60851 50.27766 92.97438 93.00722 -13.16167 -5.35189 9.9731 107.20026 17.52923 19.81451 -82.3893 0.40982 0.50365 24.37755 -2.90322 -13.00967 -35.46488 -8.4547 -5.3522 -3.6072 45.71771 -10.56567 -4.54943 -0.85636 -20.90453 33.75202 19.82262
0.48602 -0.0166 -0.24866 615.24637 -25.28006 1.48388 38.31221 5.48093 19.08986 -14.12247 0.09623 -0.83079 11.04525 5.25744 50.78592 93.12521 91.17408 -12.47419 -5.10122 5.93005 105.92752 23.15396 21.99174 -82.48754 1.04326 1.06911 23.72424 -3.31635 -12.72978 -35.62937 -8.53354 -5.33123 -3.59939 45.63593 -10.76744 -1.55286 -1.65497 -19.64337 29.32378 17.31125
0.48464 -0.01693 -0.23724 614.99263 -25.53121 1.74679 38.84259 5.40446 18.85508 -13.78412 -0.31922 -0.83079 11.39257 4.80993 51.36943 93.28169 88.85145 -11.81163 -4.8984 2.68791 104.23482 27.23665 24.51923 -82.54707 1.71852 1.46663 23.01821 -3.84314 -12.38354 -35.77553 -8.65226 -5.28986 -3.58196 45.62225 -10.87786 3.2525 -3.27023 -17.28528 22.02893 13.18533
0.48316 -0.01732 -0.2262 614.80418 -25.77555 2.00026 39.34551 5.31078 18.6077 -13.45428 -0.73032 -0.83079 11.72275 4.41045 51.91011 93.431 86.81796 -11.15418 -4.67286 -0.87767 102.66024 32.02248 26.92153 -82.61992 2.35598 1.93206 22.34688 -4.32672 -12.04587 -35.9557 -8.7737 -5.25318 -3.56738 45.5586 -11.02706 7.12206 -4.51832 -15.49743 16.27497 9.92709
0.48156 -0.01786 -0.21523 614.60848 -26.06763 2.25801 39.87765 5.2242 18.33811 -13.10509 -1.19905 -0.83079 12.08222 3.98901 52.49395 93.6012 84.50216 -10.42253 -4.44549 -4.85135 101.29766 37.11044 29.20817 -82.65816 3.0385 2.452 21.62225 -4.77799 -11.7946 -36.01981 -8.80792 -5.23601 -3.55939 45.58554 -11.18192 11.44957 -5.79427 -13.4331 9.5631 6.12962
0.48029 -0.01804 -0.20393 614.39696 -26.25564 2.50909 40.35635 5.13146 18.12501 -12.79548 -1.5414 -0.83079 12.3874 3.5916 53.0029 93.72968 82.6564 -9.85387 -4.23552 -7.70294 99.43908 41.08581 31.79945 -82.78357 3.64809 2.80911 21.00357 -5.32135 -11.3512 -36.33071 -9.03244 -5.17325 -3.53525 45.43262 -11.30531 15.26036 -7.18673 -11.673 4.14233 3.05892
0.47989 -0.0172 -0.19181 614.15901 -26.18225 2.75101 40.70243 5.01706 18.06026 -12.58895 -1.55138 -0.83079 12.51653 3.28963 53.28973 93.72852 82.25417 -9.72082 -4.06301 -7.52564 96.20711 42.3177 35.2523 -83.10434 4.07336 2.78501 20.63627 -6.10168 -10.37348 -37.24478 -9.77746 -4.99057 -3.46996 44.80837 -11.36659 17.21103 -8.72881 -11.03401 3.05176 2.42608
0.47982 -0.01602 -0.17941 613.91453 -26.00033 2.98186 40.9877 4.8955 18.05055 -12.42445 -1.43263 -0.83079 12.5933 3.01501 53.49686 93.68691 82.33788 -9.75291 -3.90733 -6.22738 92.52387 42.43913 38.97571 -83.52778 4.42416 2.59651 20.388 -6.96786 -9.21029 -38.42108 -10.71027 -4.76293 -3.3887 43.99224 -11.39932 18.5784 -10.34835 -10.73337 3.34199 2.5706
0.4796 -0.01504 -0.16721 613.68321 -25.85234 3.20903 41.28336 4.775 18.01649 -12.24661 -1.36478 -0.83079 12.70759 2.72468 53.73789 93.67245 82.18211 -9.71568 -3.7436 -5.4995 89.12747 43.06601 42.50519 -83.95141 4.79611 2.46151 20.12096 -7.78834 -8.14364 -39.53454 -11.5558 -4.55464 -3.31376 43.23521 -11.44501 20.21329 -11.90884 -10.26556 2.95189 2.33208
0.47938 -0.01386 -0.15467 613.39942 -25.7681 3.47662 41.65425 4.66339 17.98456 -12.04406 -1.32791 -0.83079 12.76633 2.44395 53.99253 93.6226 82.08631 -9.65577 -3.58173 -4.52229 85.36397 43.67482 46.35339 -84.18923 5.22151 2.40578 19.7025 -8.64364 -7.01682 -40.41886 -12.41681 -4.34842 -3.24166 42.59834 -11.48936 21.91086 -13.60112 -9.81538 2.68408 2.16242
0.47924 -0.01302 -0.14279 613.23082 -25.52656 3.65351 41.85245 4.53296 17.95615 -11.90312 -1.19678 -0.83079 12.92608 2.15201 54.19755 93.63502 81.98939 -9.68113 -3.42115 -3.76833 82.2709 44.03472 49.58918 -84.82129 5.51867 2.15393 19.62888 -9.44205 -5.97979 -41.83126 -13.28223 -4.12971 -3.16096 41.66594 -11.52853 23.30301 -15.02418 -9.42446 2.52845 2.05602
0.47931 -0.01328 -0.13275 613.33616 -24.86864 3.6134 41.59629 4.33643 17.96361 -11.92143 -0.83131 -0.83079 13.39399 1.81479 54.29538 93.84492 81.75627 -9.90927 -3.24482 -4.22715 81.08149 44.32265 51.13545 -86.67384 5.47075 1.34986 20.47551 -10.08929 -5.17108 -44.7342 -14.17793 -3.86839 -3.05224 39.95417 -11.58119 24.09736 -15.69867 -9.1069 2.34211 1.93141
0.47944 -0.01388 -0.12341 613.56781 -24.05866 3.47664 41.16701 4.12381 17.96494 -12.00011 -0.37639 -0.83079 13.96214 1.4676 54.34338 94.1163 81.51052 -10.216 -3.07179 -4.88676 80.59388 44.33617 52.04203 -88.89176 5.2978 0.36421 21.66611 -10.67054 -4.47163 -48.1387 -15.05989 -3.59971 -2.93701 37.95404 -11.62583 24.5769 -16.09256 -8.8443 2.23586 1.8522
